REM DIRINDEX 1\2,1\3,1\4,1\5
REM DIRNAME cjc044,folder01,folder02,folder03,folder04
TITLE ""
FILE "1800_158.mp3" MP3
  TRACK 01 AUDIO
    TITLE "2:cjc044_5082"
    INDEX 01 00:00:00
  TRACK 02 AUDIO
    TITLE "0:"
    INDEX 01 00:01:24
  TRACK 03 AUDIO
    TITLE "3:cjc044_5083"
    INDEX 01 00:01:68
  TRACK 04 AUDIO
    TITLE "0:"
    INDEX 01 00:03:04
  TRACK 05 AUDIO
    TITLE "4:cjc044_5084"
    INDEX 01 00:03:53
  TRACK 06 AUDIO
    TITLE "0:"
    INDEX 01 00:05:10
  TRACK 07 AUDIO
    TITLE "2:cjc044_5085"
    INDEX 01 00:06:55
  TRACK 08 AUDIO
    TITLE "0:"
    INDEX 01 00:08:40
  TRACK 09 AUDIO
    TITLE "3:cjc044_5086"
    INDEX 01 00:09:12
  TRACK 10 AUDIO
    TITLE "0:"
    INDEX 01 00:10:57
  TRACK 11 AUDIO
    TITLE "4:cjc044_5087"
    INDEX 01 00:11:29
  TRACK 12 AUDIO
    TITLE "0:"
    INDEX 01 00:13:16
  TRACK 13 AUDIO
    TITLE "2:cjc044_5088"
    INDEX 01 00:14:64
  TRACK 14 AUDIO
    TITLE "0:"
    INDEX 01 00:16:16
  TRACK 15 AUDIO
    TITLE "3:cjc044_5089"
    INDEX 01 00:16:61
  TRACK 16 AUDIO
    TITLE "0:"
    INDEX 01 00:17:74
  TRACK 17 AUDIO
    TITLE "4:cjc044_5090"
    INDEX 01 00:18:48
  TRACK 18 AUDIO
    TITLE "0:"
    INDEX 01 00:20:02
  TRACK 19 AUDIO
    TITLE "2:cjc044_5091"
    INDEX 01 00:21:53
  TRACK 20 AUDIO
    TITLE "0:"
    INDEX 01 00:22:64
  TRACK 21 AUDIO
    TITLE "3:cjc044_5092"
    INDEX 01 00:23:40
  TRACK 22 AUDIO
    TITLE "0:"
    INDEX 01 00:24:43
  TRACK 23 AUDIO
    TITLE "4:cjc044_5093"
    INDEX 01 00:25:19
  TRACK 24 AUDIO
    TITLE "0:"
    INDEX 01 00:26:28
  TRACK 25 AUDIO
    TITLE "2:cjc044_5094"
    INDEX 01 00:28:04
  TRACK 26 AUDIO
    TITLE "0:"
    INDEX 01 00:29:34
  TRACK 27 AUDIO
    TITLE "3:cjc044_5095"
    INDEX 01 00:30:08
  TRACK 28 AUDIO
    TITLE "0:"
    INDEX 01 00:31:61
  TRACK 29 AUDIO
    TITLE "4:cjc044_5096"
    INDEX 01 00:32:33
  TRACK 30 AUDIO
    TITLE "0:"
    INDEX 01 00:33:60
  TRACK 31 AUDIO
    TITLE "2:cjc044_5097"
    INDEX 01 00:35:35
  TRACK 32 AUDIO
    TITLE "0:"
    INDEX 01 00:36:58
  TRACK 33 AUDIO
    TITLE "3:cjc044_5098"
    INDEX 01 00:37:34
  TRACK 34 AUDIO
    TITLE "0:"
    INDEX 01 00:38:49
  TRACK 35 AUDIO
    TITLE "4:cjc044_5099"
    INDEX 01 00:39:19
  TRACK 36 AUDIO
    TITLE "0:"
    INDEX 01 00:40:46
  TRACK 37 AUDIO
    TITLE "2:cjc044_5100"
    INDEX 01 00:42:23
  TRACK 38 AUDIO
    TITLE "0:"
    INDEX 01 00:44:09
  TRACK 39 AUDIO
    TITLE "3:cjc044_5101"
    INDEX 01 00:44:58
  TRACK 40 AUDIO
    TITLE "0:"
    INDEX 01 00:46:07
  TRACK 41 AUDIO
    TITLE "4:cjc044_5102"
    INDEX 01 00:46:56
  TRACK 42 AUDIO
    TITLE "0:"
    INDEX 01 00:48:42
  TRACK 43 AUDIO
    TITLE "2:cjc044_5103"
    INDEX 01 00:50:17
  TRACK 44 AUDIO
    TITLE "0:"
    INDEX 01 00:51:34
  TRACK 45 AUDIO
    TITLE "3:cjc044_5104"
    INDEX 01 00:52:00
  TRACK 46 AUDIO
    TITLE "0:"
    INDEX 01 00:53:04
  TRACK 47 AUDIO
    TITLE "4:cjc044_5105"
    INDEX 01 00:53:49
  TRACK 48 AUDIO
    TITLE "0:"
    INDEX 01 00:54:66
  TRACK 49 AUDIO
    TITLE "2:cjc044_5106"
    INDEX 01 00:56:37
  TRACK 50 AUDIO
    TITLE "0:"
    INDEX 01 00:57:56
  TRACK 51 AUDIO
    TITLE "3:cjc044_5107"
    INDEX 01 00:58:24
  TRACK 52 AUDIO
    TITLE "0:"
    INDEX 01 00:59:22
  TRACK 53 AUDIO
    TITLE "4:cjc044_5108"
    INDEX 01 00:59:71
  TRACK 54 AUDIO
    TITLE "0:"
    INDEX 01 01:01:13
  TRACK 55 AUDIO
    TITLE "2:cjc044_5109"
    INDEX 01 01:02:61
  TRACK 56 AUDIO
    TITLE "0:"
    INDEX 01 01:03:69
  TRACK 57 AUDIO
    TITLE "3:cjc044_5110"
    INDEX 01 01:04:41
  TRACK 58 AUDIO
    TITLE "0:"
    INDEX 01 01:05:26
  TRACK 59 AUDIO
    TITLE "4:cjc044_5111"
    INDEX 01 01:05:71
  TRACK 60 AUDIO
    TITLE "0:"
    INDEX 01 01:07:04
  TRACK 61 AUDIO
    TITLE "2:cjc044_5112"
    INDEX 01 01:08:54
  TRACK 62 AUDIO
    TITLE "0:"
    INDEX 01 01:10:10
  TRACK 63 AUDIO
    TITLE "3:cjc044_5113"
    INDEX 01 01:10:53
  TRACK 64 AUDIO
    TITLE "0:"
    INDEX 01 01:11:62
  TRACK 65 AUDIO
    TITLE "4:cjc044_5114"
    INDEX 01 01:12:40
  TRACK 66 AUDIO
    TITLE "0:"
    INDEX 01 01:13:73
  TRACK 67 AUDIO
    TITLE "2:cjc044_5115"
    INDEX 01 01:15:44
  TRACK 68 AUDIO
    TITLE "0:"
    INDEX 01 01:17:10
  TRACK 69 AUDIO
    TITLE "3:cjc044_5116"
    INDEX 01 01:17:61
  TRACK 70 AUDIO
    TITLE "0:"
    INDEX 01 01:19:15
  TRACK 71 AUDIO
    TITLE "4:cjc044_5117"
    INDEX 01 01:19:62
  TRACK 72 AUDIO
    TITLE "0:"
    INDEX 01 01:21:31
  TRACK 73 AUDIO
    TITLE "2:cjc044_5118"
    INDEX 01 01:23:03
  TRACK 74 AUDIO
    TITLE "0:"
    INDEX 01 01:24:28
  TRACK 75 AUDIO
    TITLE "3:cjc044_5119"
    INDEX 01 01:25:04
  TRACK 76 AUDIO
    TITLE "0:"
    INDEX 01 01:26:25
  TRACK 77 AUDIO
    TITLE "4:cjc044_5120"
    INDEX 01 01:27:01
  TRACK 78 AUDIO
    TITLE "0:"
    INDEX 01 01:28:29
  TRACK 79 AUDIO
    TITLE "2:cjc044_5121"
    INDEX 01 01:30:05
  TRACK 80 AUDIO
    TITLE "0:"
    INDEX 01 01:31:22
  TRACK 81 AUDIO
    TITLE "3:cjc044_5122"
    INDEX 01 01:31:71
  TRACK 82 AUDIO
    TITLE "0:"
    INDEX 01 01:33:03
  TRACK 83 AUDIO
    TITLE "4:cjc044_5123"
    INDEX 01 01:33:52
  TRACK 84 AUDIO
    TITLE "0:"
    INDEX 01 01:34:71
  TRACK 85 AUDIO
    TITLE "2:cjc044_5124"
    INDEX 01 01:36:41
  TRACK 86 AUDIO
    TITLE "0:"
    INDEX 01 01:37:68
  TRACK 87 AUDIO
    TITLE "3:cjc044_5125"
    INDEX 01 01:38:36
  TRACK 88 AUDIO
    TITLE "0:"
    INDEX 01 01:40:31
  TRACK 89 AUDIO
    TITLE "4:cjc044_5126"
    INDEX 01 01:41:03
  TRACK 90 AUDIO
    TITLE "0:"
    INDEX 01 01:42:30
  TRACK 91 AUDIO
    TITLE "2:cjc044_5127"
    INDEX 01 01:43:74
  TRACK 92 AUDIO
    TITLE "0:"
    INDEX 01 01:45:18
  TRACK 93 AUDIO
    TITLE "3:cjc044_5128"
    INDEX 01 01:45:65
  TRACK 94 AUDIO
    TITLE "0:"
    INDEX 01 01:46:74
  TRACK 95 AUDIO
    TITLE "4:cjc044_5129"
    INDEX 01 01:47:44
  TRACK 96 AUDIO
    TITLE "0:"
    INDEX 01 01:48:67
  TRACK 97 AUDIO
    TITLE "2:cjc044_5130"
    INDEX 01 01:50:41
  TRACK 98 AUDIO
    TITLE "0:"
    INDEX 01 01:51:58
  TRACK 99 AUDIO
    TITLE "3:cjc044_5131"
    INDEX 01 01:52:32
  TRACK 100 AUDIO
    TITLE "0:"
    INDEX 01 01:53:21
  TRACK 101 AUDIO
    TITLE "4:cjc044_5132"
    INDEX 01 01:53:69
  TRACK 102 AUDIO
    TITLE "0:"
    INDEX 01 01:55:09
  TRACK 103 AUDIO
    TITLE "2:cjc044_5133"
    INDEX 01 01:56:59
  TRACK 104 AUDIO
    TITLE "0:"
    INDEX 01 01:58:13
  TRACK 105 AUDIO
    TITLE "3:cjc044_5134"
    INDEX 01 01:58:66
  TRACK 106 AUDIO
    TITLE "0:"
    INDEX 01 01:59:59
  TRACK 107 AUDIO
    TITLE "4:cjc044_5135"
    INDEX 01 02:00:33
  TRACK 108 AUDIO
    TITLE "0:"
    INDEX 01 02:01:64
